<svg width="18" height="18" viewBox="0 0 18 18" fill="none" xmlns="http://www.w3.org/2000/svg">
<path d="M12.9455 8.58015C14.9086 8.58015 16.5 6.99517 16.5 5.04006C16.5 3.08494 14.9086 1.5 12.9455 1.5C10.9823 1.5 9.39083 3.08494 9.39083 5.04006C9.39083 5.94565 9.80415 6.60427 9.80415 6.60427L5.5056 10.8853C5.31272 11.0773 5.04268 11.5768 5.5056 12.0379L6.00159 12.5318C6.19447 12.6964 6.67942 12.927 7.07621 12.5318L7.65488 11.9555C8.2335 12.5318 8.89485 12.2025 9.1428 11.8732C9.55613 11.2969 9.06015 10.7206 9.06015 10.7206L9.22553 10.5559C10.0191 11.3463 10.7135 10.8853 10.9615 10.5559C11.3748 9.97965 10.9615 9.40335 10.9615 9.40335C10.7961 9.0741 10.4655 9.0741 10.8788 8.66242L11.3748 8.16847C11.7716 8.4978 12.5872 8.58015 12.9455 8.58015Z" stroke="#1C274C" stroke-width="1.35" stroke-linejoin="round"/>
<path d="M16.5 11.2447C16.4521 13.3402 16.2519 14.5642 15.4156 15.4006C14.3161 16.5 12.5466 16.5 9.00757 16.5C5.46845 16.5 3.69891 16.5 2.59945 15.4006C1.5 14.3011 1.5 12.5315 1.5 8.99242C1.5 5.45338 1.5 3.68383 2.59945 2.58438C3.43574 1.74808 4.65973 1.54791 6.75528 1.5" stroke="#1C274C" stroke-width="1.35" stroke-linecap="round"/>
</svg>
