<svg width="687" height="173" viewBox="0 0 687 173" fill="none" xmlns="http://www.w3.org/2000/svg">
<path d="M199.344 128V32H219.641V71.6094H260.844V32H281.094V128H260.844V88.3437H219.641V128H199.344ZM317.984 129.359C313.391 129.359 309.297 128.563 305.703 126.969C302.109 125.344 299.266 122.953 297.172 119.797C295.109 116.609 294.078 112.641 294.078 107.891C294.078 103.891 294.813 100.531 296.281 97.8125C297.75 95.0938 299.75 92.9063 302.281 91.25C304.813 89.5937 307.688 88.3437 310.906 87.5C314.156 86.6562 317.563 86.0625 321.125 85.7188C325.313 85.2812 328.688 84.875 331.25 84.5C333.813 84.0937 335.672 83.5 336.828 82.7187C337.984 81.9375 338.563 80.7812 338.563 79.25V78.9687C338.563 76 337.625 73.7031 335.75 72.0781C333.906 70.4531 331.281 69.6406 327.875 69.6406C324.281 69.6406 321.422 70.4375 319.297 72.0312C317.172 73.5937 315.766 75.5625 315.078 77.9375L296.609 76.4375C297.547 72.0625 299.391 68.2812 302.141 65.0938C304.891 61.875 308.438 59.4062 312.781 57.6875C317.156 55.9375 322.219 55.0625 327.969 55.0625C331.969 55.0625 335.797 55.5312 339.453 56.4687C343.141 57.4062 346.406 58.8594 349.25 60.8281C352.125 62.7969 354.391 65.3281 356.047 68.4219C357.703 71.4844 358.531 75.1562 358.531 79.4375V128H339.594V118.016H339.031C337.875 120.266 336.328 122.25 334.391 123.969C332.453 125.656 330.125 126.984 327.406 127.953C324.688 128.891 321.547 129.359 317.984 129.359ZM323.703 115.578C326.641 115.578 329.234 115 331.484 113.844C333.734 112.656 335.5 111.062 336.781 109.063C338.063 107.062 338.703 104.797 338.703 102.266V94.625C338.078 95.0312 337.219 95.4062 336.125 95.75C335.063 96.0625 333.859 96.3594 332.516 96.6406C331.172 96.8906 329.828 97.125 328.484 97.3437C327.141 97.5312 325.922 97.7031 324.828 97.8594C322.484 98.2031 320.438 98.75 318.688 99.5C316.938 100.25 315.578 101.266 314.609 102.547C313.641 103.797 313.156 105.359 313.156 107.234C313.156 109.953 314.141 112.031 316.109 113.469C318.109 114.875 320.641 115.578 323.703 115.578ZM374.398 128V32H394.367V68.0937H394.977C395.852 66.1562 397.117 64.1875 398.773 62.1875C400.461 60.1562 402.648 58.4687 405.336 57.125C408.055 55.75 411.43 55.0625 415.461 55.0625C420.711 55.0625 425.555 56.4375 429.992 59.1875C434.43 61.9062 437.977 66.0156 440.633 71.5156C443.289 76.9844 444.617 83.8437 444.617 92.0937C444.617 100.125 443.32 106.906 440.727 112.437C438.164 117.937 434.664 122.109 430.227 124.953C425.82 127.766 420.883 129.172 415.414 129.172C411.539 129.172 408.242 128.531 405.523 127.25C402.836 125.969 400.633 124.359 398.914 122.422C397.195 120.453 395.883 118.469 394.977 116.469H394.086V128H374.398ZM393.945 92C393.945 96.2812 394.539 100.016 395.727 103.203C396.914 106.391 398.633 108.875 400.883 110.656C403.133 112.406 405.867 113.281 409.086 113.281C412.336 113.281 415.086 112.391 417.336 110.609C419.586 108.797 421.289 106.297 422.445 103.109C423.633 99.8906 424.227 96.1875 424.227 92C424.227 87.8437 423.648 84.1875 422.492 81.0312C421.336 77.875 419.633 75.4062 417.383 73.625C415.133 71.8437 412.367 70.9531 409.086 70.9531C405.836 70.9531 403.086 71.8125 400.836 73.5312C398.617 75.25 396.914 77.6875 395.727 80.8437C394.539 84 393.945 87.7187 393.945 92ZM457.941 128V56H477.91V128H457.941ZM467.973 46.7187C465.004 46.7187 462.457 45.7344 460.332 43.7656C458.238 41.7656 457.191 39.375 457.191 36.5937C457.191 33.8437 458.238 31.4844 460.332 29.5156C462.457 27.5156 465.004 26.5156 467.973 26.5156C470.941 26.5156 473.473 27.5156 475.566 29.5156C477.691 31.4844 478.754 33.8437 478.754 36.5937C478.754 39.375 477.691 41.7656 475.566 43.7656C473.473 45.7344 470.941 46.7187 467.973 46.7187ZM513.875 32V128H493.906V32H513.875ZM529.871 128V56H549.84V128H529.871ZM539.902 46.7187C536.934 46.7187 534.387 45.7344 532.262 43.7656C530.168 41.7656 529.121 39.375 529.121 36.5937C529.121 33.8437 530.168 31.4844 532.262 29.5156C534.387 27.5156 536.934 26.5156 539.902 26.5156C542.871 26.5156 545.402 27.5156 547.496 29.5156C549.621 31.4844 550.684 33.8437 550.684 36.5937C550.684 39.375 549.621 41.7656 547.496 43.7656C545.402 45.7344 542.871 46.7187 539.902 46.7187ZM604.133 56V71H560.773V56H604.133ZM570.617 38.75H590.586V105.875C590.586 107.719 590.867 109.156 591.43 110.187C591.992 111.187 592.773 111.891 593.773 112.297C594.805 112.703 595.992 112.906 597.336 112.906C598.273 112.906 599.211 112.828 600.148 112.672C601.086 112.484 601.805 112.344 602.305 112.25L605.445 127.109C604.445 127.422 603.039 127.781 601.227 128.188C599.414 128.625 597.211 128.891 594.617 128.984C589.805 129.172 585.586 128.531 581.961 127.062C578.367 125.594 575.57 123.312 573.57 120.219C571.57 117.125 570.586 113.219 570.617 108.5V38.75ZM629.469 155C626.937 155 624.563 154.797 622.344 154.391C620.156 154.016 618.344 153.531 616.906 152.937L621.406 138.031C623.75 138.75 625.859 139.141 627.734 139.203C629.641 139.266 631.281 138.828 632.656 137.891C634.063 136.953 635.203 135.359 636.078 133.109L637.25 130.062L611.422 56H632.422L647.328 108.875H648.078L663.125 56H684.266L656.281 135.781C654.938 139.656 653.109 143.031 650.797 145.906C648.516 148.813 645.625 151.047 642.125 152.609C638.625 154.203 634.406 155 629.469 155Z" fill="#002B51"/>
<path d="M25.3898 4.18L132.75 4C146.83 7.19 156.22 17.85 157.3 32.28C158.85 52.9 158.75 86.41 157.3 107.09C156.63 116.58 152.83 125.96 146.28 132.95C139.65 140.03 95.6798 167.8 86.4498 170.82C78.9698 173.27 73.7098 171.79 66.8198 168.51C55.3698 163.05 38.6498 152.02 27.6898 144.83C13.8198 135.74 2.01983 127.21 0.639831 109.08C-1.34017 82.89 2.00984 54.03 0.909835 27.57C3.69984 15.6 13.2198 6.38 25.3698 4.18H25.3898ZM58.5298 36.8H39.5798V127.47H59.5198V92.1C59.5198 91.8 58.2598 91.34 58.5198 90.61H85.9398C86.4398 90.61 91.6698 96.75 92.9398 97.57H94.3998L118.35 72.18V36.81H99.3998V72.68H58.5098V36.81L58.5298 36.8ZM133.82 66.71L92.9298 108.53C91.9198 108.53 82.9098 97.25 80.7798 96.69C78.6498 96.13 71.1698 102.69 72.9598 105.55L92.9398 127.47L141.84 77.66C143.71 74.08 135.72 69.53 133.83 66.73L133.82 66.71Z" fill="#1482F8"/>
</svg>
